<svg xmlns="http://www.w3.org/2000/svg" viewBox="0 0 256 256">
    <path fill="#000000" d="M254.3 127.4c0 70.2-57 127.2-127.2 127.2S0 197.6 0 127.4C0 57.2 57 .2 127.2.2s127.1 57 127.1 127.2"/>
    <path fill="#FFFFFF" d="M122.9 127.6c0 2.7-2.2 4.9-4.9 4.9s-4.9-2.2-4.9-4.9 2.2-4.9 4.9-4.9 4.9 2.2 4.9 4.9zm91.3-4.9c-2.7 0-4.9 2.2-4.9 4.9s2.2 4.9 4.9 4.9 4.9-2.2 4.9-4.9-2.2-4.9-4.9-4.9"/>
    <path fill="#FFFFFF" d="M239.2 127.6c0 61.8-50.1 111.9-111.9 111.9S15.4 189.4 15.4 127.6 65.5 15.7 127.3 15.7s111.9 50.1 111.9 111.9m5.3 0c0-64.7-52.5-117.2-117.2-117.2S10.1 62.9 10.1 127.6 62.6 244.8 127.3 244.8s117.2-52.5 117.2-117.2"/>
    <path fill="#FFFFFF" d="M242.8 127.6c0 63.8-51.7 115.5-115.5 115.5S11.8 191.4 11.8 127.6 63.5 12.1 127.3 12.1s115.5 51.7 115.5 115.5m1.7 0c0-64.7-52.5-117.2-117.2-117.2S10.1 62.9 10.1 127.6 62.6 244.8 127.3 244.8s117.2-52.5 117.2-117.2"/>
</svg> 